<mxfile host="Electron" modified="2024-04-22T04:28:20.918Z" agent="Mozilla/5.0 (Windows NT 10.0; Win64; x64) AppleWebKit/537.36 (KHTML, like Gecko) draw.io/24.2.5 Chrome/120.0.6099.109 Electron/28.1.0 Safari/537.36" etag="db6oistl3MDVCrznuNqE" version="24.2.5" type="device">
  <diagram name="Página-1" id="X-kmcr5pA4AqSmoUgIz5">
    <mxGraphModel dx="1420" dy="830" grid="1" gridSize="10" guides="1" tooltips="1" connect="1" arrows="1" fold="1" page="1" pageScale="1" pageWidth="827" pageHeight="1169" background="#CCE5FF" math="0" shadow="0">
      <root>
        <mxCell id="0" />
        <mxCell id="1" parent="0" />
        <mxCell id="72mfCmDQVk1srDWOjnsM-1" value="&lt;b style=&quot;font-size: 16px;&quot;&gt;&lt;font style=&quot;font-size: 16px;&quot; color=&quot;#000000&quot; face=&quot;Comic Sans MS&quot;&gt;8 Hacer un programa para ingresar una lista de números que finaliza cuando se&lt;br&gt;ingresa un cero, luego informar el máximo y la posición del máximo en la lista.&lt;br&gt;En caso de “empates” considerar la primera aparición.&lt;br&gt;Ejemplo A: 5, -10, 20, 8, 25, 13, 35, -8, -5, 20, 0. Se listará Máximo 35 Posición 7.&lt;br&gt;Ejemplo B: 5, -10, 20, 8, 25, 13, 55, -8, 55, 20, 0. Se listará Máximo 55 Posición 7.&lt;br&gt;Ejemplo C: -9, -10, -20, -3, -9, -13, -55, -18, -55, 0. Se listará Máximo -3 Posición 4.&lt;/font&gt;&lt;/b&gt;" style="text;whiteSpace=wrap;html=1;fontFamily=Architects Daughter;fontSource=https%3A%2F%2Ffonts.googleapis.com%2Fcss%3Ffamily%3DArchitects%2BDaughter;" vertex="1" parent="1">
          <mxGeometry x="40" y="10" width="780" height="140" as="geometry" />
        </mxCell>
        <mxCell id="72mfCmDQVk1srDWOjnsM-73" value="" style="group;aspect=fixed;" vertex="1" connectable="0" parent="1">
          <mxGeometry x="104" y="201" width="470" height="970" as="geometry" />
        </mxCell>
        <mxCell id="72mfCmDQVk1srDWOjnsM-61" value="" style="group;aspect=fixed;" vertex="1" connectable="0" parent="72mfCmDQVk1srDWOjnsM-73">
          <mxGeometry x="95" y="80" width="280" height="55" as="geometry" />
        </mxCell>
        <mxCell id="72mfCmDQVk1srDWOjnsM-11" value="" style="rounded=0;whiteSpace=wrap;html=1;labelBackgroundColor=none;strokeColor=#0f100e;strokeWidth=2;align=center;verticalAlign=middle;fontFamily=Helvetica;fontSize=12;fontColor=default;fillColor=#d5e8d4;container=0;" vertex="1" parent="72mfCmDQVk1srDWOjnsM-61">
          <mxGeometry x="5" width="270" height="55" as="geometry" />
        </mxCell>
        <mxCell id="72mfCmDQVk1srDWOjnsM-12" value="&lt;font face=&quot;Comic Sans MS&quot; color=&quot;#000000&quot;&gt;&lt;span style=&quot;font-size: 15px;&quot;&gt;&lt;b&gt;int num, maximo, posicion, con = 0&lt;/b&gt;&lt;/span&gt;&lt;/font&gt;&lt;div&gt;&lt;font face=&quot;Comic Sans MS&quot; color=&quot;#000000&quot;&gt;&lt;span style=&quot;font-size: 15px;&quot;&gt;&lt;b&gt;bool bandera = true&lt;/b&gt;&lt;/span&gt;&lt;/font&gt;&lt;/div&gt;" style="text;strokeColor=none;align=center;fillColor=none;html=1;verticalAlign=middle;whiteSpace=wrap;rounded=0;fontFamily=Architects Daughter;fontSource=https://fonts.googleapis.com/css?family=Architects+Daughter;container=0;" vertex="1" parent="72mfCmDQVk1srDWOjnsM-61">
          <mxGeometry y="2.5" width="280" height="50" as="geometry" />
        </mxCell>
        <mxCell id="72mfCmDQVk1srDWOjnsM-3" value="" style="group;aspect=fixed;" vertex="1" connectable="0" parent="72mfCmDQVk1srDWOjnsM-73">
          <mxGeometry x="210" width="50" height="50" as="geometry" />
        </mxCell>
        <mxCell id="72mfCmDQVk1srDWOjnsM-4" value="" style="strokeWidth=2;html=1;shape=mxgraph.flowchart.start_2;whiteSpace=wrap;rounded=0;labelBackgroundColor=none;strokeColor=#000000;align=center;verticalAlign=middle;fontFamily=Helvetica;fontSize=12;fontColor=default;fillColor=#d5e8d4;" vertex="1" parent="72mfCmDQVk1srDWOjnsM-3">
          <mxGeometry width="50" height="50" as="geometry" />
        </mxCell>
        <mxCell id="72mfCmDQVk1srDWOjnsM-5" value="&lt;b&gt;&lt;font style=&quot;font-size: 22px;&quot; color=&quot;#000000&quot; face=&quot;Comic Sans MS&quot;&gt;I&lt;/font&gt;&lt;/b&gt;" style="text;strokeColor=none;align=center;fillColor=none;html=1;verticalAlign=middle;whiteSpace=wrap;rounded=0;fontFamily=Architects Daughter;fontSource=https://fonts.googleapis.com/css?family=Architects+Daughter;" vertex="1" parent="72mfCmDQVk1srDWOjnsM-3">
          <mxGeometry x="10" y="10" width="30" height="30" as="geometry" />
        </mxCell>
        <mxCell id="72mfCmDQVk1srDWOjnsM-6" style="edgeStyle=orthogonalEdgeStyle;rounded=0;sketch=1;hachureGap=4;jiggle=2;curveFitting=1;orthogonalLoop=1;jettySize=auto;html=1;exitX=0.5;exitY=1;exitDx=0;exitDy=0;fontFamily=Architects Daughter;fontSource=https://fonts.googleapis.com/css?family=Architects+Daughter;" edge="1" parent="72mfCmDQVk1srDWOjnsM-3" source="72mfCmDQVk1srDWOjnsM-5" target="72mfCmDQVk1srDWOjnsM-5">
          <mxGeometry relative="1" as="geometry" />
        </mxCell>
        <mxCell id="72mfCmDQVk1srDWOjnsM-13" value="" style="group;aspect=fixed;" vertex="1" connectable="0" parent="72mfCmDQVk1srDWOjnsM-73">
          <mxGeometry x="170" y="170" width="130" height="40" as="geometry" />
        </mxCell>
        <mxCell id="72mfCmDQVk1srDWOjnsM-14" value="" style="shape=trapezoid;perimeter=trapezoidPerimeter;whiteSpace=wrap;html=1;fixedSize=1;rounded=0;labelBackgroundColor=none;strokeColor=#121211;strokeWidth=2;align=center;verticalAlign=middle;fontFamily=Helvetica;fontSize=12;fontColor=default;fillColor=#d5e8d4;direction=west;container=0;" vertex="1" parent="72mfCmDQVk1srDWOjnsM-13">
          <mxGeometry width="130" height="40" as="geometry">
            <mxRectangle x="-1020" y="-650" width="50" height="40" as="alternateBounds" />
          </mxGeometry>
        </mxCell>
        <mxCell id="72mfCmDQVk1srDWOjnsM-15" value="&lt;b&gt;&lt;font style=&quot;font-size: 17px;&quot; color=&quot;#000000&quot; face=&quot;Comic Sans MS&quot;&gt;num&lt;/font&gt;&lt;/b&gt;" style="text;strokeColor=none;align=center;fillColor=none;html=1;verticalAlign=middle;whiteSpace=wrap;rounded=0;fontFamily=Architects Daughter;fontSource=https://fonts.googleapis.com/css?family=Architects+Daughter;container=0;" vertex="1" parent="72mfCmDQVk1srDWOjnsM-13">
          <mxGeometry x="35" y="5" width="60" height="30" as="geometry" />
        </mxCell>
        <mxCell id="72mfCmDQVk1srDWOjnsM-56" value="" style="line;strokeWidth=2;direction=south;html=1;hachureGap=4;fontFamily=Architects Daughter;fontSource=https://fonts.googleapis.com/css?family=Architects+Daughter;strokeColor=#000000;" vertex="1" parent="72mfCmDQVk1srDWOjnsM-73">
          <mxGeometry x="230" y="810" width="10" height="40" as="geometry" />
        </mxCell>
        <mxCell id="72mfCmDQVk1srDWOjnsM-57" value="" style="line;strokeWidth=2;direction=south;html=1;hachureGap=4;fontFamily=Architects Daughter;fontSource=https://fonts.googleapis.com/css?family=Architects+Daughter;strokeColor=#000000;" vertex="1" parent="72mfCmDQVk1srDWOjnsM-73">
          <mxGeometry x="230" y="210" width="10" height="50" as="geometry" />
        </mxCell>
        <mxCell id="72mfCmDQVk1srDWOjnsM-58" value="" style="line;strokeWidth=2;direction=south;html=1;hachureGap=4;fontFamily=Architects Daughter;fontSource=https://fonts.googleapis.com/css?family=Architects+Daughter;strokeColor=#000000;" vertex="1" parent="72mfCmDQVk1srDWOjnsM-73">
          <mxGeometry x="230" y="50" width="10" height="30" as="geometry" />
        </mxCell>
        <mxCell id="72mfCmDQVk1srDWOjnsM-59" value="" style="line;strokeWidth=2;direction=south;html=1;hachureGap=4;fontFamily=Architects Daughter;fontSource=https://fonts.googleapis.com/css?family=Architects+Daughter;strokeColor=#000000;" vertex="1" parent="72mfCmDQVk1srDWOjnsM-73">
          <mxGeometry x="230" y="135" width="10" height="35" as="geometry" />
        </mxCell>
        <mxCell id="72mfCmDQVk1srDWOjnsM-62" value="" style="group;aspect=fixed;" vertex="1" connectable="0" parent="72mfCmDQVk1srDWOjnsM-73">
          <mxGeometry x="165" y="850" width="140" height="120" as="geometry" />
        </mxCell>
        <mxCell id="72mfCmDQVk1srDWOjnsM-60" value="" style="line;strokeWidth=2;direction=south;html=1;hachureGap=4;fontFamily=Architects Daughter;fontSource=https://fonts.googleapis.com/css?family=Architects+Daughter;strokeColor=#000000;container=0;" vertex="1" parent="72mfCmDQVk1srDWOjnsM-62">
          <mxGeometry x="65" y="40" width="10" height="30" as="geometry" />
        </mxCell>
        <mxCell id="72mfCmDQVk1srDWOjnsM-8" value="" style="strokeWidth=2;html=1;shape=mxgraph.flowchart.start_2;whiteSpace=wrap;rounded=0;labelBackgroundColor=none;strokeColor=#000000;align=center;verticalAlign=middle;fontFamily=Helvetica;fontSize=12;fontColor=default;fillColor=#d5e8d4;container=0;" vertex="1" parent="72mfCmDQVk1srDWOjnsM-62">
          <mxGeometry x="45" y="70" width="50" height="50" as="geometry" />
        </mxCell>
        <mxCell id="72mfCmDQVk1srDWOjnsM-9" value="&lt;b&gt;&lt;font style=&quot;font-size: 22px;&quot; color=&quot;#000000&quot; face=&quot;Comic Sans MS&quot;&gt;F&lt;/font&gt;&lt;/b&gt;" style="text;strokeColor=none;align=center;fillColor=none;html=1;verticalAlign=middle;whiteSpace=wrap;rounded=0;fontFamily=Architects Daughter;fontSource=https://fonts.googleapis.com/css?family=Architects+Daughter;container=0;" vertex="1" parent="72mfCmDQVk1srDWOjnsM-62">
          <mxGeometry x="55" y="80" width="30" height="30" as="geometry" />
        </mxCell>
        <mxCell id="72mfCmDQVk1srDWOjnsM-63" value="" style="group;aspect=fixed;" vertex="1" connectable="0" parent="72mfCmDQVk1srDWOjnsM-73">
          <mxGeometry y="260" width="470" height="550" as="geometry" />
        </mxCell>
        <mxCell id="72mfCmDQVk1srDWOjnsM-20" value="" style="whiteSpace=wrap;html=1;rounded=0;labelBackgroundColor=none;strokeColor=#1A1A1A;strokeWidth=3;align=center;verticalAlign=middle;fontFamily=Helvetica;fontSize=12;fontColor=default;fillColor=#d5e8d4;container=0;" vertex="1" parent="72mfCmDQVk1srDWOjnsM-63">
          <mxGeometry width="470" height="550" as="geometry" />
        </mxCell>
        <mxCell id="72mfCmDQVk1srDWOjnsM-21" value="" style="edgeStyle=none;orthogonalLoop=1;jettySize=auto;html=1;rounded=0;strokeColor=#000000;fontFamily=Helvetica;fontSize=12;fontColor=default;fillColor=#B2C9AB;startArrow=none;startFill=0;endArrow=none;endFill=0;endSize=7;strokeWidth=2;" edge="1" parent="72mfCmDQVk1srDWOjnsM-63">
          <mxGeometry width="80" relative="1" as="geometry">
            <mxPoint x="470" y="47.41935483870964" as="sourcePoint" />
            <mxPoint y="47.41935483870964" as="targetPoint" />
            <Array as="points" />
          </mxGeometry>
        </mxCell>
        <mxCell id="72mfCmDQVk1srDWOjnsM-22" value="&lt;b&gt;&lt;font style=&quot;font-size: 18px;&quot; color=&quot;#000000&quot; face=&quot;Comic Sans MS&quot;&gt;num != 0&lt;/font&gt;&lt;/b&gt;" style="text;strokeColor=none;align=center;fillColor=none;html=1;verticalAlign=middle;whiteSpace=wrap;rounded=0;fontFamily=Architects Daughter;fontSource=https://fonts.googleapis.com/css?family=Architects+Daughter;container=0;" vertex="1" parent="72mfCmDQVk1srDWOjnsM-63">
          <mxGeometry x="165" y="10" width="140" height="30" as="geometry" />
        </mxCell>
        <mxCell id="72mfCmDQVk1srDWOjnsM-71" value="" style="group;aspect=fixed;" vertex="1" connectable="0" parent="72mfCmDQVk1srDWOjnsM-63">
          <mxGeometry x="51" y="81.5" width="386" height="445" as="geometry" />
        </mxCell>
        <mxCell id="72mfCmDQVk1srDWOjnsM-39" value="" style="line;strokeWidth=2;html=1;perimeter=backbonePerimeter;points=[];outlineConnect=0;hachureGap=4;fontFamily=Architects Daughter;fontSource=https://fonts.googleapis.com/css?family=Architects+Daughter;strokeColor=#000000;container=0;" vertex="1" parent="72mfCmDQVk1srDWOjnsM-71">
          <mxGeometry x="63" y="115" width="55" height="10" as="geometry" />
        </mxCell>
        <mxCell id="72mfCmDQVk1srDWOjnsM-40" value="" style="line;strokeWidth=2;direction=south;html=1;hachureGap=4;fontFamily=Architects Daughter;fontSource=https://fonts.googleapis.com/css?family=Architects+Daughter;strokeColor=#000000;container=0;" vertex="1" parent="72mfCmDQVk1srDWOjnsM-71">
          <mxGeometry x="60" y="120" width="10" height="65" as="geometry" />
        </mxCell>
        <mxCell id="72mfCmDQVk1srDWOjnsM-41" value="" style="line;strokeWidth=2;html=1;perimeter=backbonePerimeter;points=[];outlineConnect=0;hachureGap=4;fontFamily=Architects Daughter;fontSource=https://fonts.googleapis.com/css?family=Architects+Daughter;strokeColor=#000000;container=0;" vertex="1" parent="72mfCmDQVk1srDWOjnsM-71">
          <mxGeometry x="218" y="115" width="55" height="10" as="geometry" />
        </mxCell>
        <mxCell id="72mfCmDQVk1srDWOjnsM-42" value="" style="line;strokeWidth=2;direction=south;html=1;hachureGap=4;fontFamily=Architects Daughter;fontSource=https://fonts.googleapis.com/css?family=Architects+Daughter;strokeColor=#000000;container=0;" vertex="1" parent="72mfCmDQVk1srDWOjnsM-71">
          <mxGeometry x="268" y="118" width="10" height="50" as="geometry" />
        </mxCell>
        <mxCell id="72mfCmDQVk1srDWOjnsM-43" value="" style="line;strokeWidth=2;direction=south;html=1;hachureGap=4;fontFamily=Architects Daughter;fontSource=https://fonts.googleapis.com/css?family=Architects+Daughter;strokeColor=#000000;container=0;" vertex="1" parent="72mfCmDQVk1srDWOjnsM-71">
          <mxGeometry x="60" y="255" width="10" height="120" as="geometry" />
        </mxCell>
        <mxCell id="72mfCmDQVk1srDWOjnsM-44" value="" style="line;strokeWidth=2;html=1;perimeter=backbonePerimeter;points=[];outlineConnect=0;hachureGap=4;fontFamily=Architects Daughter;fontSource=https://fonts.googleapis.com/css?family=Architects+Daughter;strokeColor=#000000;container=0;" vertex="1" parent="72mfCmDQVk1srDWOjnsM-71">
          <mxGeometry x="173" y="215" width="50" height="10" as="geometry" />
        </mxCell>
        <mxCell id="72mfCmDQVk1srDWOjnsM-45" value="" style="line;strokeWidth=2;html=1;perimeter=backbonePerimeter;points=[];outlineConnect=0;hachureGap=4;fontFamily=Architects Daughter;fontSource=https://fonts.googleapis.com/css?family=Architects+Daughter;strokeColor=#000000;container=0;" vertex="1" parent="72mfCmDQVk1srDWOjnsM-71">
          <mxGeometry x="323" y="215" width="50" height="10" as="geometry" />
        </mxCell>
        <mxCell id="72mfCmDQVk1srDWOjnsM-46" value="" style="line;strokeWidth=2;direction=south;html=1;hachureGap=4;fontFamily=Architects Daughter;fontSource=https://fonts.googleapis.com/css?family=Architects+Daughter;strokeColor=#000000;container=0;" vertex="1" parent="72mfCmDQVk1srDWOjnsM-71">
          <mxGeometry x="170" y="218" width="10" height="57" as="geometry" />
        </mxCell>
        <mxCell id="72mfCmDQVk1srDWOjnsM-47" value="" style="line;strokeWidth=2;direction=south;html=1;hachureGap=4;fontFamily=Architects Daughter;fontSource=https://fonts.googleapis.com/css?family=Architects+Daughter;strokeColor=#000000;container=0;" vertex="1" parent="72mfCmDQVk1srDWOjnsM-71">
          <mxGeometry x="365" y="219.5" width="10" height="125.5" as="geometry" />
        </mxCell>
        <mxCell id="72mfCmDQVk1srDWOjnsM-48" value="" style="line;strokeWidth=2;direction=south;html=1;hachureGap=4;fontFamily=Architects Daughter;fontSource=https://fonts.googleapis.com/css?family=Architects+Daughter;strokeColor=#000000;container=0;" vertex="1" parent="72mfCmDQVk1srDWOjnsM-71">
          <mxGeometry x="170" y="315" width="10" height="30" as="geometry" />
        </mxCell>
        <mxCell id="72mfCmDQVk1srDWOjnsM-49" value="" style="line;strokeWidth=2;html=1;perimeter=backbonePerimeter;points=[];outlineConnect=0;hachureGap=4;fontFamily=Architects Daughter;fontSource=https://fonts.googleapis.com/css?family=Architects+Daughter;strokeColor=#000000;container=0;" vertex="1" parent="72mfCmDQVk1srDWOjnsM-71">
          <mxGeometry x="173" y="338" width="200" height="10" as="geometry" />
        </mxCell>
        <mxCell id="72mfCmDQVk1srDWOjnsM-50" value="" style="line;strokeWidth=2;direction=south;html=1;hachureGap=4;fontFamily=Architects Daughter;fontSource=https://fonts.googleapis.com/css?family=Architects+Daughter;strokeColor=#000000;container=0;" vertex="1" parent="72mfCmDQVk1srDWOjnsM-71">
          <mxGeometry x="273" y="343" width="10" height="32" as="geometry" />
        </mxCell>
        <mxCell id="72mfCmDQVk1srDWOjnsM-51" value="" style="line;strokeWidth=2;html=1;perimeter=backbonePerimeter;points=[];outlineConnect=0;hachureGap=4;fontFamily=Architects Daughter;fontSource=https://fonts.googleapis.com/css?family=Architects+Daughter;strokeColor=#000000;container=0;" vertex="1" parent="72mfCmDQVk1srDWOjnsM-71">
          <mxGeometry x="63" y="371" width="215" height="10" as="geometry" />
        </mxCell>
        <mxCell id="72mfCmDQVk1srDWOjnsM-52" value="&lt;b&gt;&lt;font color=&quot;#000000&quot; style=&quot;font-size: 14px;&quot; face=&quot;Comic Sans MS&quot;&gt;V&lt;/font&gt;&lt;/b&gt;" style="text;strokeColor=none;align=center;fillColor=none;html=1;verticalAlign=middle;whiteSpace=wrap;rounded=0;fontFamily=Architects Daughter;fontSource=https://fonts.googleapis.com/css?family=Architects+Daughter;container=0;" vertex="1" parent="72mfCmDQVk1srDWOjnsM-71">
          <mxGeometry x="46" y="97" width="40" height="30" as="geometry" />
        </mxCell>
        <mxCell id="72mfCmDQVk1srDWOjnsM-53" value="&lt;b&gt;&lt;font color=&quot;#000000&quot; style=&quot;font-size: 14px;&quot; face=&quot;Comic Sans MS&quot;&gt;F&lt;/font&gt;&lt;/b&gt;" style="text;strokeColor=none;align=center;fillColor=none;html=1;verticalAlign=middle;whiteSpace=wrap;rounded=0;fontFamily=Architects Daughter;fontSource=https://fonts.googleapis.com/css?family=Architects+Daughter;container=0;" vertex="1" parent="72mfCmDQVk1srDWOjnsM-71">
          <mxGeometry x="250" y="97" width="40" height="30" as="geometry" />
        </mxCell>
        <mxCell id="72mfCmDQVk1srDWOjnsM-54" value="&lt;b&gt;&lt;font color=&quot;#000000&quot; style=&quot;font-size: 14px;&quot; face=&quot;Comic Sans MS&quot;&gt;V&lt;/font&gt;&lt;/b&gt;" style="text;strokeColor=none;align=center;fillColor=none;html=1;verticalAlign=middle;whiteSpace=wrap;rounded=0;fontFamily=Architects Daughter;fontSource=https://fonts.googleapis.com/css?family=Architects+Daughter;container=0;" vertex="1" parent="72mfCmDQVk1srDWOjnsM-71">
          <mxGeometry x="157" y="196" width="40" height="30" as="geometry" />
        </mxCell>
        <mxCell id="72mfCmDQVk1srDWOjnsM-55" value="&lt;b&gt;&lt;font color=&quot;#000000&quot; style=&quot;font-size: 14px;&quot; face=&quot;Comic Sans MS&quot;&gt;F&lt;/font&gt;&lt;/b&gt;" style="text;strokeColor=none;align=center;fillColor=none;html=1;verticalAlign=middle;whiteSpace=wrap;rounded=0;fontFamily=Architects Daughter;fontSource=https://fonts.googleapis.com/css?family=Architects+Daughter;container=0;" vertex="1" parent="72mfCmDQVk1srDWOjnsM-71">
          <mxGeometry x="346" y="197" width="40" height="30" as="geometry" />
        </mxCell>
        <mxCell id="72mfCmDQVk1srDWOjnsM-24" value="" style="rhombus;whiteSpace=wrap;html=1;rounded=0;labelBackgroundColor=none;strokeColor=#0F140C;strokeWidth=2;align=center;verticalAlign=middle;fontFamily=Helvetica;fontSize=12;fontColor=default;fillColor=#d5e8d4;container=0;" vertex="1" parent="72mfCmDQVk1srDWOjnsM-71">
          <mxGeometry x="118" y="65" width="100" height="110" as="geometry" />
        </mxCell>
        <mxCell id="72mfCmDQVk1srDWOjnsM-25" value="&lt;b&gt;&lt;font style=&quot;font-size: 15px;&quot; color=&quot;#000000&quot; face=&quot;Comic Sans MS&quot;&gt;bandera&lt;/font&gt;&lt;/b&gt;" style="text;strokeColor=none;align=center;fillColor=none;html=1;verticalAlign=middle;whiteSpace=wrap;rounded=0;fontFamily=Architects Daughter;fontSource=https://fonts.googleapis.com/css?family=Architects+Daughter;container=0;" vertex="1" parent="72mfCmDQVk1srDWOjnsM-71">
          <mxGeometry x="138" y="105" width="60" height="30" as="geometry" />
        </mxCell>
        <mxCell id="72mfCmDQVk1srDWOjnsM-30" value="" style="rhombus;whiteSpace=wrap;html=1;rounded=0;labelBackgroundColor=none;strokeColor=#0F140C;strokeWidth=2;align=center;verticalAlign=middle;fontFamily=Helvetica;fontSize=12;fontColor=default;fillColor=#d5e8d4;container=0;" vertex="1" parent="72mfCmDQVk1srDWOjnsM-71">
          <mxGeometry x="223" y="165" width="100" height="110" as="geometry" />
        </mxCell>
        <mxCell id="72mfCmDQVk1srDWOjnsM-31" value="&lt;b&gt;&lt;font style=&quot;font-size: 15px;&quot; color=&quot;#000000&quot; face=&quot;Comic Sans MS&quot;&gt;num&lt;/font&gt;&lt;/b&gt;&lt;div&gt;&lt;b&gt;&lt;font style=&quot;font-size: 15px;&quot; color=&quot;#000000&quot; face=&quot;Comic Sans MS&quot;&gt;&amp;gt;&lt;/font&gt;&lt;/b&gt;&lt;/div&gt;&lt;div&gt;&lt;b&gt;&lt;font style=&quot;font-size: 15px;&quot; color=&quot;#000000&quot; face=&quot;Comic Sans MS&quot;&gt;maximo&lt;/font&gt;&lt;/b&gt;&lt;/div&gt;" style="text;strokeColor=none;align=center;fillColor=none;html=1;verticalAlign=middle;whiteSpace=wrap;rounded=0;fontFamily=Architects Daughter;fontSource=https://fonts.googleapis.com/css?family=Architects+Daughter;container=0;" vertex="1" parent="72mfCmDQVk1srDWOjnsM-71">
          <mxGeometry x="243" y="200" width="60" height="30" as="geometry" />
        </mxCell>
        <mxCell id="72mfCmDQVk1srDWOjnsM-33" value="" style="rounded=0;whiteSpace=wrap;html=1;labelBackgroundColor=none;strokeColor=#0f100e;strokeWidth=2;align=center;verticalAlign=middle;fontFamily=Helvetica;fontSize=12;fontColor=default;fillColor=#d5e8d4;container=0;" vertex="1" parent="72mfCmDQVk1srDWOjnsM-71">
          <mxGeometry x="108" y="275" width="130" height="40" as="geometry" />
        </mxCell>
        <mxCell id="72mfCmDQVk1srDWOjnsM-34" value="&lt;font face=&quot;Comic Sans MS&quot; color=&quot;#000000&quot;&gt;&lt;span style=&quot;font-size: 15px;&quot;&gt;&lt;b&gt;maximo = num&lt;/b&gt;&lt;/span&gt;&lt;/font&gt;&lt;div&gt;&lt;font face=&quot;Comic Sans MS&quot; color=&quot;#000000&quot;&gt;&lt;span style=&quot;font-size: 15px;&quot;&gt;&lt;b&gt;posicion = com&lt;/b&gt;&lt;/span&gt;&lt;/font&gt;&lt;/div&gt;" style="text;strokeColor=none;align=center;fillColor=none;html=1;verticalAlign=middle;whiteSpace=wrap;rounded=0;fontFamily=Architects Daughter;fontSource=https://fonts.googleapis.com/css?family=Architects+Daughter;container=0;" vertex="1" parent="72mfCmDQVk1srDWOjnsM-71">
          <mxGeometry x="116.5" y="278" width="110" height="30" as="geometry" />
        </mxCell>
        <mxCell id="72mfCmDQVk1srDWOjnsM-36" value="" style="shape=trapezoid;perimeter=trapezoidPerimeter;whiteSpace=wrap;html=1;fixedSize=1;rounded=0;labelBackgroundColor=none;strokeColor=#121211;strokeWidth=2;align=center;verticalAlign=middle;fontFamily=Helvetica;fontSize=12;fontColor=default;fillColor=#d5e8d4;direction=west;container=0;" vertex="1" parent="72mfCmDQVk1srDWOjnsM-71">
          <mxGeometry x="103" y="405" width="130" height="40" as="geometry">
            <mxRectangle x="-1020" y="-650" width="50" height="40" as="alternateBounds" />
          </mxGeometry>
        </mxCell>
        <mxCell id="72mfCmDQVk1srDWOjnsM-37" value="&lt;b&gt;&lt;font style=&quot;font-size: 17px;&quot; color=&quot;#000000&quot; face=&quot;Comic Sans MS&quot;&gt;num&lt;/font&gt;&lt;/b&gt;" style="text;strokeColor=none;align=center;fillColor=none;html=1;verticalAlign=middle;whiteSpace=wrap;rounded=0;fontFamily=Architects Daughter;fontSource=https://fonts.googleapis.com/css?family=Architects+Daughter;container=0;" vertex="1" parent="72mfCmDQVk1srDWOjnsM-71">
          <mxGeometry x="138" y="410" width="60" height="30" as="geometry" />
        </mxCell>
        <mxCell id="72mfCmDQVk1srDWOjnsM-38" value="" style="line;strokeWidth=2;direction=south;html=1;hachureGap=4;fontFamily=Architects Daughter;fontSource=https://fonts.googleapis.com/css?family=Architects+Daughter;strokeColor=#000000;container=0;" vertex="1" parent="72mfCmDQVk1srDWOjnsM-71">
          <mxGeometry x="163" y="375" width="10" height="30" as="geometry" />
        </mxCell>
        <mxCell id="72mfCmDQVk1srDWOjnsM-68" value="" style="group;aspect=fixed;" vertex="1" connectable="0" parent="72mfCmDQVk1srDWOjnsM-71">
          <mxGeometry x="115" width="103" height="35" as="geometry" />
        </mxCell>
        <mxCell id="72mfCmDQVk1srDWOjnsM-65" value="" style="rounded=0;whiteSpace=wrap;html=1;labelBackgroundColor=none;strokeColor=#0f100e;strokeWidth=2;align=center;verticalAlign=middle;fontFamily=Helvetica;fontSize=12;fontColor=default;fillColor=#d5e8d4;" vertex="1" parent="72mfCmDQVk1srDWOjnsM-68">
          <mxGeometry width="103" height="35" as="geometry" />
        </mxCell>
        <mxCell id="72mfCmDQVk1srDWOjnsM-67" value="&lt;b&gt;&lt;font style=&quot;font-size: 17px;&quot; color=&quot;#000000&quot; face=&quot;Comic Sans MS&quot;&gt;con++&lt;/font&gt;&lt;/b&gt;" style="text;strokeColor=none;align=center;fillColor=none;html=1;verticalAlign=middle;whiteSpace=wrap;rounded=0;fontFamily=Architects Daughter;fontSource=https://fonts.googleapis.com/css?family=Architects+Daughter;container=0;" vertex="1" parent="72mfCmDQVk1srDWOjnsM-68">
          <mxGeometry x="23" y="1" width="60" height="30" as="geometry" />
        </mxCell>
        <mxCell id="72mfCmDQVk1srDWOjnsM-69" value="" style="group;aspect=fixed;" vertex="1" connectable="0" parent="72mfCmDQVk1srDWOjnsM-71">
          <mxGeometry y="185" width="130" height="70" as="geometry" />
        </mxCell>
        <mxCell id="72mfCmDQVk1srDWOjnsM-27" value="" style="rounded=0;whiteSpace=wrap;html=1;labelBackgroundColor=none;strokeColor=#0f100e;strokeWidth=2;align=center;verticalAlign=middle;fontFamily=Helvetica;fontSize=12;fontColor=default;fillColor=#d5e8d4;container=0;" vertex="1" parent="72mfCmDQVk1srDWOjnsM-69">
          <mxGeometry width="130" height="70" as="geometry" />
        </mxCell>
        <mxCell id="72mfCmDQVk1srDWOjnsM-28" value="&lt;b&gt;&lt;font style=&quot;font-size: 15px;&quot; color=&quot;#000000&quot; face=&quot;Comic Sans MS&quot;&gt;maximo = num&lt;/font&gt;&lt;/b&gt;&lt;div&gt;&lt;font face=&quot;Comic Sans MS&quot; color=&quot;#000000&quot;&gt;&lt;span style=&quot;font-size: 15px;&quot;&gt;&lt;b&gt;posicion = com&lt;br&gt;&lt;/b&gt;&lt;/span&gt;&lt;/font&gt;&lt;div&gt;&lt;b&gt;&lt;font style=&quot;font-size: 15px;&quot; color=&quot;#000000&quot; face=&quot;Comic Sans MS&quot;&gt;bandera = false&lt;/font&gt;&lt;/b&gt;&lt;/div&gt;&lt;/div&gt;" style="text;strokeColor=none;align=center;fillColor=none;html=1;verticalAlign=middle;whiteSpace=wrap;rounded=0;fontFamily=Architects Daughter;fontSource=https://fonts.googleapis.com/css?family=Architects+Daughter;container=0;" vertex="1" parent="72mfCmDQVk1srDWOjnsM-69">
          <mxGeometry x="5" y="7.5" width="123" height="55" as="geometry" />
        </mxCell>
        <mxCell id="72mfCmDQVk1srDWOjnsM-70" value="" style="line;strokeWidth=2;direction=south;html=1;hachureGap=4;fontFamily=Architects Daughter;fontSource=https://fonts.googleapis.com/css?family=Architects+Daughter;strokeColor=#000000;" vertex="1" parent="72mfCmDQVk1srDWOjnsM-71">
          <mxGeometry x="163" y="35" width="10" height="30" as="geometry" />
        </mxCell>
        <mxCell id="72mfCmDQVk1srDWOjnsM-72" value="" style="group;aspect=fixed;" vertex="1" connectable="0" parent="72mfCmDQVk1srDWOjnsM-73">
          <mxGeometry x="135" y="850" width="200" height="40" as="geometry" />
        </mxCell>
        <mxCell id="72mfCmDQVk1srDWOjnsM-17" value="" style="shape=trapezoid;perimeter=trapezoidPerimeter;whiteSpace=wrap;html=1;fixedSize=1;rounded=0;labelBackgroundColor=none;strokeColor=#0F140C;strokeWidth=2;align=center;verticalAlign=middle;fontFamily=Helvetica;fontSize=12;fontColor=default;fillColor=#d5e8d4;container=0;" vertex="1" parent="72mfCmDQVk1srDWOjnsM-72">
          <mxGeometry width="200" height="40" as="geometry" />
        </mxCell>
        <mxCell id="72mfCmDQVk1srDWOjnsM-18" value="&lt;b&gt;&lt;font style=&quot;font-size: 17px;&quot; color=&quot;#000000&quot; face=&quot;Comic Sans MS&quot;&gt;maximo, posicion&lt;/font&gt;&lt;/b&gt;" style="text;strokeColor=none;align=center;fillColor=none;html=1;verticalAlign=middle;whiteSpace=wrap;rounded=0;fontFamily=Architects Daughter;fontSource=https://fonts.googleapis.com/css?family=Architects+Daughter;container=0;" vertex="1" parent="72mfCmDQVk1srDWOjnsM-72">
          <mxGeometry x="15" y="4" width="170" height="30" as="geometry" />
        </mxCell>
      </root>
    </mxGraphModel>
  </diagram>
</mxfile>
